#!OML:ASF F:\VICON\USERDATA\INSTALL\Justin_Nancy\Justin_Nancy.ASF
:FULLY-SPECIFIED
:DEGREES
65
root -10.2079 16.2531 -6.80358 -5.16877 17.8697 -0.0905902
lowerback 14.0306 -1.71876 -4.238
upperback 3.28364 -2.66865 3.65429
thorax -4.0042 -1.2753 6.73421
lowerneck -20.7208 -0.144429 -8.21099
upperneck 20.0626 2.55561 -0.497339
head 9.72245 0.48663 1.53319
rclavicle -9.23355e-014 -1.66979e-014
rhumerus -51.7678 24.8005 -86.6994
rradius 130.617
rwrist 2.53138
rhand -8.90954 25.9975
rfingers 7.12502
rthumb 17.0335 -3.27572
lclavicle -9.23355e-014 -1.66979e-014
lhumerus -45.3192 -11.7811 79.7723
lradius 114.764
lwrist 12.9541
lhand -10.2214 8.45062
lfingers 7.12502
lthumb 15.7704 37.8282
rfemur -27.6517 8.38845 -1.39626
rtibia 26.8549
rfoot 12.0304 -0.667213
rtoes -19.472
lfemur -14.4685 1.04755 -20.748
ltibia 66.0277
lfoot -5.76683 -27.1617
ltoes -7.2139
66
root -10.1994 16.1716 -6.4755 -5.18105 19.4965 -0.51157
lowerback 13.7736 -1.95592 -3.91252
upperback 3.11149 -2.91301 3.94581
thorax -4.01207 -1.39394 6.89165
lowerneck -18.4987 0.736424 -8.3504
upperneck 19.4081 3.49556 -0.242669
head 9.04108 0.98858 1.73939
rclavicle 3.19049e-014 -7.95139e-016
rhumerus -52.5994 24.8522 -85.4217
rradius 131
rwrist 2.84184
rhand -8.56616 26.1231
rfingers 7.12502
rthumb 17.364 -3.12123
lclavicle 3.19049e-014 -7.95139e-016
lhumerus -45.3449 -11.5699 79.6741
lradius 114.617
lwrist 12.6415
lhand -10.6089 8.47436
lfingers 7.12502
lthumb 15.3972 37.881
rfemur -27.0342 8.63703 -1.78254
rtibia 27.1275
rfoot 11.6168 -2.16025
rtoes -20.6579
lfemur -14.7782 1.2059 -20.0263
ltibia 67.1539
lfoot -7.28634 -27.0221
ltoes -9.27751
67
root -10.1919 16.0769 -6.14753 -5.34127 21.3042 -0.947981
lowerback 13.7008 -2.17183 -3.67508
upperback 2.67347 -3.14722 4.19025
thorax -4.40115 -1.48727 7.07039
lowerneck -17.0475 0.614066 -8.29956
upperneck 19.7287 3.19905 -0.325682
head 8.90625 0.845356 1.65449
rclavicle 5.9039e-014 -2.3059e-014
rhumerus -54.2597 24.9261 -84.71
rradius 131.333
rwrist 2.77914
rhand -9.0858 25.6134
rfingers 7.12502
rthumb 16.8638 -3.67432
lclavicle 5.9039e-014 -2.3059e-014
lhumerus -45.8599 -11.4907 79.6756
lradius 114.387
lwrist 12.6962
lhand -11.2804 8.94767
lfingers 7.12502
lthumb 14.7503 38.4028
rfemur -26.3973 8.40901 -1.91117
rtibia 28.451
rfoot 9.81146 -3.11595
rtoes -20.7167
lfemur -15.1387 0.97788 -19.3408
ltibia 68.4885
lfoot -7.86364 -26.9457
ltoes -9.59054
68
root -10.1913 15.9776 -5.82824 -5.52613 23.1203 -1.31581
lowerback 13.789 -2.35881 -3.3353
upperback 2.84146 -3.33429 4.36858
thorax -4.25292 -1.59035 7.09516
lowerneck -18.0572 0.178839 -8.89547
upperneck 20.3184 2.79585 0.113651
head 9.29803 0.631221 1.8707
rclavicle -6.47044e-014 4.29375e-014
rhumerus -53.9339 25.0096 -83.305
rradius 131.242
rwrist 2.30747
rhand -9.63311 24.9995
rfingers 7.12502
rthumb 16.3369 -4.33239
lclavicle -6.47044e-014 4.29375e-014
lhumerus -45.0022 -10.9584 79.2301
lradius 114.05
lwrist 13.0672
lhand -11.5779 9.15908
lfingers 7.12502
lthumb 14.4637 38.635
rfemur -25.9527 7.62819 -1.81539
rtibia 30.6737
rfoot 6.93815 -3.391
rtoes -23.0467
lfemur -15.6809 0.705819 -18.7129
ltibia 70.0101
lfoot -7.56942 -27.4373
ltoes -7.933
69
root -10.1931 15.8734 -5.51751 -5.79125 24.8233 -1.84944
lowerback 14.0422 -2.46199 -2.95903
upperback 2.67512 -3.39881 4.60612
thorax -4.56608 -1.60922 7.172
lowerneck -16.5252 0.698131 -8.06334
upperneck 19.5503 3.238 -0.510327
head 8.75573 0.874479 1.55036
rclavicle -1.49089e-014 7.95139e-015
rhumerus -54.26 25.0046 -82.0181
rradius 131.093
rwrist 1.71713
rhand -9.7127 24.6507
rfingers 7.12502
rthumb 16.2603 -4.68746
lclavicle -1.49089e-014 7.95139e-015
lhumerus -45.0984 -10.4667 79.0602
lradius 113.814
lwrist 13.3602
lhand -11.6541 8.97256
lfingers 7.12502
lthumb 14.3904 38.4537
rfemur -25.6919 6.49018 -1.42115
rtibia 33.4433
rfoot 3.52393 -3.28941
rtoes -25.0141
lfemur -16.4964 0.530924 -17.9681
ltibia 71.6849
lfoot -7.07405 -28.1498
ltoes -5.04989
70
root -10.1966 15.7606 -5.21224 -6.19784 26.4362 -2.40163
lowerback 14.478 -2.47378 -2.5615
upperback 2.50125 -3.33736 4.78174
thorax -5.01076 -1.56188 7.16354
lowerneck -14.6769 1.56522 -6.13799
upperneck 18.7962 4.05399 -1.88098
head 8.20087 1.30305 0.840712
rclavicle -5.00937e-014 3.02153e-014
rhumerus -54.6182 24.7733 -80.8225
rradius 130.653
rwrist 1.12497
rhand -9.64115 24.6293
rfingers 7.12502
rthumb 16.3292 -4.70322
lclavicle -5.00937e-014 3.02153e-014
lhumerus -45.2902 -10.0038 79.0099
lradius 113.529
lwrist 13.9535
lhand -11.1168 8.93225
lfingers 7.12502
lthumb 14.908 38.3758
rfemur -25.3527 5.48764 -0.998528
rtibia 36.4063
rfoot 0.0536428 -3.02132
rtoes -24.5528
lfemur -17.2924 0.335292 -17.3036
ltibia 73.39
lfoot -7.55534 -28.7119
ltoes -5.06226
71
root -10.1989 15.6493 -4.91962 -6.76886 27.8423 -3.05029
lowerback 15.0014 -2.44591 -2.10843
upperback 2.48366 -3.20912 4.96314
thorax -5.34881 -1.48966 7.11586
lowerneck -13.4604 2.00046 -4.4918
upperneck 18.3505 4.4106 -3.02798
head 7.88721 1.50555 0.212731
rclavicle 3.26007e-014 -1.35174e-014
rhumerus -54.3964 24.6941 -79.5498
rradius 129.796
rwrist 0.604798
rhand -9.89238 24.6936
rfingers 7.12502
rthumb 16.0873 -4.65863
lclavicle 3.26007e-014 -1.35174e-014
lhumerus -45.2294 -9.26259 78.8488
lradius 113.119
lwrist 14.7065
lhand -10.991 8.85567
lfingers 7.12502
lthumb 15.0292 38.2902
rfemur -24.9839 4.90245 -0.43394
rtibia 39.3807
rfoot -3.07311 -2.95987
rtoes -25.6142
lfemur -18.0952 0.29363 -16.5818
ltibia 75.1106
lfoot -7.4607 -29.5437
ltoes -4.74149
72
root -10.1955 15.5514 -4.63782 -7.51685 29.1934 -3.84545
lowerback 15.4356 -2.39783 -1.59911
upperback 2.80286 -3.03708 5.25828
thorax -5.27909 -1.41444 7.12674
lowerneck -13.2415 2.04694 -3.85873
upperneck 17.956 4.39637 -3.48758
head 7.74108 1.51425 -0.0481558
rclavicle -4.35338e-014 -3.73715e-014
rhumerus -53.249 24.7866 -78.0434
rradius 128.521
rwrist -0.0946172
rhand -10.5556 25.0666
rfingers 7.12502
rthumb 15.4485 -4.33604
lclavicle -4.35338e-014 -3.73715e-014
lhumerus -44.6719 -8.30429 78.7234
lradius 112.589
lwrist 15.5542
lhand -11.7946 8.388
lfingers 7.12502
lthumb 14.2549 37.8788
rfemur -24.5274 4.51112 0.308993
rtibia 42.2024
rfoot -5.85745 -3.35813
rtoes -26.3322
lfemur -18.9766 0.391909 -15.8067
ltibia 76.8121
lfoot -6.44542 -30.5796
ltoes -3.26767
73
root -10.1848 15.4617 -4.36343 -8.14503 30.4533 -4.69485
lowerback 15.7656 -2.36756 -1.00472
upperback 3.17837 -2.8709 5.59341
thorax -5.0919 -1.34549 7.12237
lowerneck -14.3895 1.87785 -4.29506
upperneck 18.305 4.29145 -3.19334
head 8.0475 1.43561 0.124821
rclavicle 4.96962e-014 -4.85035e-014
rhumerus -51.4909 25.1234 -76.4646
rradius 126.921
rwrist -1.29362
rhand -10.987 25.1625
rfingers 7.12502
rthumb 15.0331 -4.27172
lclavicle 4.96962e-014 -4.85035e-014
lhumerus -44.0465 -7.06812 78.6174
lradius 111.959
lwrist 16.534
lhand -11.9507 8.53716
lfingers 7.12502
lthumb 14.1045 38.0385
rfemur -24.2443 3.77517 1.19694
rtibia 44.8118
rfoot -8.03596 -3.9758
rtoes -27.6845
lfemur -20.1247 0.547753 -15.12
ltibia 78.4886
lfoot -4.85584 -31.4298
ltoes -1.70027
74
root -10.1617 15.3853 -4.09503 -8.80321 31.573 -5.70052
lowerback 16.2024 -2.31276 -0.232587
upperback 2.98387 -2.62851 5.78456
thorax -5.59556 -1.21587 6.87786
lowerneck -14.1145 1.65831 -4.58214
upperneck 18.6759 3.95675 -2.69032
head 8.10582 1.30108 0.30106
rclavicle 4.85035e-014 7.15625e-015
rhumerus -50.8902 25.6173 -75.7654
rradius 125.184
rwrist -2.82719
rhand -10.848 24.5621
rfingers 7.12502
rthumb 15.1669 -4.86206
lclavicle 4.85035e-014 7.15625e-015
lhumerus -44.0749 -5.8627 78.538
lradius 110.701
lwrist 17.5307
lhand -12.3353 9.44418
lfingers 7.12502
lthumb 13.7338 38.9709
rfemur -23.8776 2.60303 2.35462
rtibia 47.1674
rfoot -9.81711 -4.54979
rtoes -29.1996
lfemur -21.2839 0.69137 -14.3223
ltibia 80.1575
lfoot -2.62674 -32.217
ltoes 1.54372
75
root -10.1293 15.3218 -3.84255 -9.78294 32.3484 -7.08519
lowerback 16.7558 -2.22492 0.884267
upperback 3.08658 -2.26079 6.14094
thorax -5.86004 -1.0397 6.57985
lowerneck -14.6648 1.4849 -5.10782
upperneck 19.2281 3.8118 -2.23105
head 8.37296 1.2188 0.534193
rclavicle -1.0138e-014 -1.98785e-014
rhumerus -49.1265 26.2824 -74.6283
rradius 122.897
rwrist -4.5576
rhand -10.6797 23.6545
rfingers 7.12502
rthumb 15.329 -5.75731
lclavicle -1.0138e-014 -1.98785e-014
lhumerus -43.0066 -3.67656 78.7262
lradius 108.637
lwrist 18.2384
lhand -12.7152 10.2699
lfingers 7.12502
lthumb 13.3677 39.8211
rfemur -23.4179 1.38467 3.89616
rtibia 49.232
rfoot -11.4721 -4.86876
rtoes -29.3342
lfemur -22.2538 1.10988 -13.1702
ltibia 81.8606
lfoot -1.16537 -33.0048
ltoes 4.05638
76
root -10.0973 15.2484 -3.62117 -11.0963 32.2582 -9.33835
lowerback 17.4411 -1.96036 2.86143
upperback 3.25604 -1.45313 6.78422
thorax -6.16942 -0.659615 6.00608
lowerneck -15.0706 1.46607 -5.24695
upperneck 19.4396 3.8995 -2.39301
head 8.5201 1.22292 0.51919
rclavicle 1.22253e-013 -4.13472e-014
rhumerus -47.039 27.0449 -73.3719
rradius 120.41
rwrist -6.43606
rhand -10.8841 22.498
rfingers 7.12502
rthumb 15.1322 -6.92879
lclavicle 1.22253e-013 -4.13472e-014
lhumerus -42.5459 -2.03402 79.0219
lradius 107.143
lwrist 19.4128
lhand -13.0845 10.5661
lfingers 7.12502
lthumb 13.0118 40.1403
rfemur -23.4914 0.764536 6.30714
rtibia 51.0259
rfoot -12.8116 -5.08876
rtoes -29.0204
lfemur -23.6167 2.38405 -11.1512
ltibia 83.7212
lfoot -1.06421 -33.6571
ltoes 4.23892
77
root -10.0727 15.159 -3.41321 -12.8802 31.3119 -12.2764
lowerback 18.4113 -1.60359 5.41178
upperback 3.54811 -0.337563 7.66403
thorax -6.48138 -0.139253 5.29394
lowerneck -15.4271 1.52579 -5.64025
upperneck 19.2897 4.12319 -2.49859
head 8.52849 1.29016 0.576735
rclavicle 1.23246e-013 -3.18055e-015
rhumerus -45.2906 27.9205 -72.5209
rradius 118.159
rwrist -7.7296
rhand -11.3101 21.1846
rfingers 7.12502
rthumb 14.7218 -8.27263
lclavicle 1.23246e-013 -3.18055e-015
lhumerus -42.4378 -0.578548 79.3494
lradius 106.175
lwrist 21.0433
lhand -14.0248 11.1653
lfingers 7.12502
lthumb 12.1052 40.7952
rfemur -23.594 1.02872 9.54391
rtibia 52.5694
rfoot -13.8564 -5.58631
rtoes -29.9877
lfemur -25.0531 4.55308 -8.32727
ltibia 85.6078
lfoot -1.66345 -34.0064
ltoes 2.6856
78
root -10.0321 15.0851 -3.20526 -13.6258 30.2169 -12.8715
lowerback 19.4546 -0.85158 6.00329
upperback 3.97836 0.885063 7.99582
thorax -6.6344 0.454623 5.04431
lowerneck -15.7947 1.47261 -5.92891
upperneck 19.193 4.14846 -2.50333
head 8.55805 1.27994 0.628623
rclavicle 4.41302e-014 8.74653e-014
rhumerus -43.1523 28.4762 -71.3696
rradius 115.874
rwrist -8.07381
rhand -11.1415 20.9584
rfingers 7.12502
rthumb 14.8842 -8.48688
lclavicle 4.41302e-014 8.74653e-014
lhumerus -42.7379 0.415608 79.5744
lradius 105.656
lwrist 22.5129
lhand -14.7626 11.2877
lfingers 7.12502
lthumb 11.3938 40.9581
rfemur -23.4228 1.48763 10.4795
rtibia 54.0157
rfoot -15.1111 -5.34427
rtoes -30.2733
lfemur -25.7642 6.95766 -7.96794
ltibia 87.0207
lfoot -3.09543 -33.3743
ltoes -0.381895
79
root -9.96438 15.0605 -2.97036 -12.3713 31.5257 -11.2223
lowerback 18.8656 -0.389003 4.48488
upperback 4.05978 1.09184 7.70939
thorax -6.2611 0.579307 5.52497
lowerneck -15.8158 1.42252 -5.79987
upperneck 18.9984 4.09478 -2.75197
head 8.50613 1.24563 0.516811
rclavicle -1.39149e-014 -6.67916e-014
rhumerus -40.5538 28.7812 -69.9041
rradius 113.3
rwrist -7.62287
rhand -10.3776 22.533
rfingers 7.12502
rthumb 15.62 -6.85635
lclavicle -1.39149e-014 -6.67916e-014
lhumerus -42.9863 1.26314 79.7813
lradius 105.037
lwrist 23.7886
lhand -14.8696 11.2419
lfingers 7.12502
lthumb 11.2905 40.918
rfemur -23.2071 0.167226 8.63018
rtibia 55.346
rfoot -16.6932 -4.9449
rtoes -30.0407
lfemur -27.3163 7.27751 -10.8153
ltibia 87.7753
lfoot -4.43324 -31.368
ltoes -2.23127
